<?xml version="1.0" encoding="UTF-8" standalone="no"?><!DOCTYPE svg PUBLIC "-//W3C//DTD SVG 1.1//EN" "http://www.w3.org/Graphics/SVG/1.1/DTD/svg11.dtd"><svg width="100%" height="100%" viewBox="0 0 47171 12380" version="1.1" xmlns="http://www.w3.org/2000/svg" xmlns:xlink="http://www.w3.org/1999/xlink" xml:space="preserve" xmlns:serif="http://www.serif.com/" style="fill-rule:evenodd;clip-rule:evenodd;stroke-linejoin:round;stroke-miterlimit:2;"><g><path d="M47136.2,10060.8l-15815.5,-0l0,2257.24l15815.5,0l0,-2257.24Zm-54.254,54.254l-0,2148.73l-15707,0l-0,-2148.73l15707,-0Z" style="fill:#fff;fill-rule:nonzero;"/><path d="M31327.6,10060.8l0,2257.24l-17725.7,0l-0,-2257.24l17725.7,-0Zm-17113.3,444.125l-159.359,-0l424.479,1334.78l142.796,-0l335.504,-1051.14l333.767,1051.14l142.721,-0l424.625,-1334.78l-159.504,-0l-335.504,1106.77l-337.459,-1106.77l-139.033,-0l-335.575,1106.77l-337.458,-1106.77Zm3488.62,-0l-148.292,-0l0,1334.78l148.292,-0l-0,-630.354l734.158,-0l0,630.354l148.296,-0l-0,-1334.78l-148.296,-0l0,556.133l-734.158,0l-0,-556.133Zm10930.9,-0l-841.654,-0l0,1334.78l841.654,-0l0,-148.292l-693.362,0l-0,-482.062l619.212,-0l0,-148.292l-619.212,0l-0,-407.842l693.362,0l0,-148.291Zm804.417,0.025l-563.583,-0l-0,1334.78l148.291,-0l0,-463.471l415.292,0c18.592,0 35.229,-1.808 50.133,-1.808l228.009,465.279l164.929,-0l-248.409,-508.029c135.346,-70.388 222.513,-213.179 222.513,-391.134c-0,-252.095 -174.263,-435.616 -417.175,-435.616Zm-415.292,723.016l0,-574.725l417.175,0c153.863,0 266.925,120.517 266.925,287.325c0,165.075 -113.062,287.4 -268.808,287.4l-415.292,0Zm-4608.17,-723.041l0,1334.78l491.321,-0c383.754,-0 656.325,-278.067 656.325,-667.392c0,-389.321 -272.571,-667.387 -656.325,-667.387l-491.321,-0Zm148.296,148.291l343.025,0c300.346,0 507.959,211.371 507.959,519.096c-0,307.729 -207.613,519.1 -507.959,519.1l-343.025,0l0,-1038.2Zm-5501.42,-148.291l-142.796,-0l-0,1334.78l148.296,-0l-0,-1065.97l739.729,1065.97l142.721,-0l-0,-1334.78l-148.292,-0l0,1065.97l-739.658,-1065.97Zm4131.71,-0l-142.796,-0l0,1334.78l148.292,-0l-0,-1065.97l739.729,1065.97l142.725,-0l0,-1334.78l-148.296,-0l0,1065.97l-739.654,-1065.97Zm-6565.46,-18.596c-378.259,-0 -685.984,307.725 -685.984,685.979c0,378.183 307.725,685.908 685.984,685.908c378.108,0 685.908,-307.725 685.908,-685.908c0,-378.254 -307.8,-685.979 -685.908,-685.979Zm-0,1223.6c-296.659,-0 -537.692,-240.959 -537.692,-537.617c0,-296.583 241.033,-537.617 537.692,-537.617c296.583,0 537.616,241.034 537.616,537.617c0,296.658 -241.033,537.617 -537.616,537.617Zm13605.5,-1205l-148.221,-0l0,1334.78l148.221,-0l-0,-604.383l604.454,604.383l211.3,-0l-702.617,-698.859l678.53,-635.92l-213.179,-0l-578.488,541.375l0,-541.375Zm-4242.96,-0l-159.434,-0l424.48,1334.78l142.795,-0l335.575,-1051.14l333.696,1051.14l142.796,-0l424.55,-1334.78l-159.433,-0l-335.575,1106.77l-337.454,-1106.77l-139.034,-0l-335.579,1106.77l-337.383,-1106.77Zm-3794.37,0.004l-530.167,1334.78l159.434,0l129.775,-324.437l641.42,-0l127.967,324.437l159.433,0l-530.237,-1334.78l-157.625,-0Zm79.787,202.037l261.359,660.013l-524.596,-0l263.237,-660.013Zm-1659.04,-202.041l-148.296,-0l-0,1334.78l148.296,-0l-0,-630.354l734.158,-0l0,630.354l148.292,-0l-0,-1334.78l-148.292,-0l0,556.133l-734.158,0l-0,-556.133Z" style="fill:#fff;"/><path d="M7161.08,657.263c-953.562,709.275 -2113.14,1167.39 -3311.2,1267.51c-254.916,20.979 -511.716,28.571 -768.516,34.287c-646.705,19.025 -1314.38,38.05 -1947.85,273.871c-207.829,78.633 -401.117,177.3 -584.204,290.8l-0,-1866.47l6611.79,0.001l-0.021,-0.001Zm-6611.79,4110.39l-0,-1591.36c236.691,-185.113 491.612,-335.65 772.571,-441.121c547.816,-205.438 1143.23,-222.583 1774.74,-239.725c266.275,-7.596 532.625,-15.192 797.021,-38.05c1525.46,-126.088 2991.97,-790.15 4107.43,-1800.13l2916.67,-0c-456.963,993.491 -1084.13,1881.37 -2051.72,2302.3c-781.759,338.612 -1694.88,313.875 -2577.47,289.133l-439.454,-9.475c-1738.57,-26.621 -3064.45,213.033 -4171.5,766.567c-416.596,208.333 -795.213,467.158 -1128.26,761.862l-0.016,0Zm11070,-2075.67c-542.175,974.175 -1130.28,1786.67 -2000.08,2251.59c-1016.06,542.175 -2257.88,502.246 -3450.02,376.667l-317.709,-32.338c-1008.39,-108.433 -2053.1,-222.583 -3055.78,68.505c-924.771,267.866 -1724.97,882.091 -2246.46,1678.02l-0,-1515.12c369.071,-410.446 832.829,-766.638 1367.91,-1034.14c1027.2,-513.6 2275.03,-741.9 3924.27,-711.446l431.783,11.429c941.625,24.742 1915.58,51.363 2805.78,-334.779c1188.44,-515.625 1920.72,-1639.47 2421.45,-2793.12l118.85,0l0,2034.73Zm-4485.54,9034.96c545.504,-586.879 1131.23,-1132.45 1787.4,-1590.35c868.708,-607.425 1797.17,-993.563 2698.14,-1137.23l0,2727.58l-4485.54,-0l0.005,-0Zm-6584.5,-1388.24c1053.68,-1170.72 2353.23,-2111.77 3806.58,-2749.13c146.483,-62.792 252.962,26.617 281.537,55.121c30.383,28.571 121.746,137.008 55.121,289.133c-97.004,220.704 -254.846,460.358 -466,711.446c-998.7,1190.1 -2265.12,2137.59 -3677.23,2768.3l-0,-1074.87Zm8050.42,-3264.62c-772.283,599.175 -1481.85,1283.93 -2168.55,1945.89c-603.012,580.225 -1225.05,1179.4 -1879.42,1713.91c-478.155,389.829 -953.196,721.279 -1422.09,993.054l-1987.78,-0c1335.65,-658.925 2534.72,-1592.09 3495.52,-2737.34c243.491,-291.087 427.95,-572.558 545.933,-838.904c133.104,-304.325 68.433,-650.538 -165.508,-884.479c-232.059,-232.059 -576.388,-296.8 -876.955,-167.388c-1345.7,590.638 -2565.68,1429.25 -3591.58,2461.45l0,-1211.01c292.538,-1152.78 1250.44,-2145.4 2397.58,-2479.31c899.375,-260.562 1890.55,-154.008 2847.3,-49.408l319.517,32.337c1276.33,135.055 2615.81,173.105 3760.06,-437.5c731.842,-390.05 1275.75,-977.721 1745.59,-1684.1l0,1731.05c-1192.56,344.546 -2242.19,1004.34 -3019.6,1611.76Zm-2189.38,4652.83l-2288.12,0c255.279,-177.3 511.287,-368.85 768.158,-578.342c671.513,-547.887 1301.14,-1154.66 1911.75,-1742.48c677.154,-652.417 1377.17,-1327.69 2126.66,-1909.8c703.704,-549.262 1637.59,-1144.82 2690.54,-1477.29l0.001,2438.37c-1010.06,145.108 -2045.07,565.175 -3006.3,1239.8c-829.43,579.5 -1543.04,1283.93 -2202.69,2029.73Zm-6396.71,535.663l12141.4,-0.001l-0,-12141l-12141.4,0l-0,12141Z" style="fill:#fff;fill-rule:nonzero;"/><path d="M16152.1,8193.67c0,-603.079 -468.604,-837.384 -1121.6,-991.896c-583.187,-139.471 -922.091,-264.108 -922.091,-617.988c-0,-314.016 309.025,-593.241 732.708,-593.241c358.8,-0 697.846,164.496 981.917,438.729l239.225,-304.108c-314.021,-289.138 -692.784,-488.571 -1201.25,-488.571c-657.917,-0 -1146.41,428.746 -1146.41,977.071c0,593.095 433.592,807.362 1121.53,966.866c598.087,139.613 922.162,284.217 922.162,648.079c-0,308.954 -269.242,598.088 -797.525,598.088c-478.517,-0 -832.467,-204.279 -1121.6,-493.417l-244.217,304.038c343.971,338.975 787.546,543.329 1350.77,543.329c797.525,-0 1206.38,-443.646 1206.38,-986.979Z" style="fill:#fff;"/><path d="M18294.8,9125.79l388.816,-0l0,-3055.49l1151.4,0l-0,-368.925l-2691.7,0l-0,368.925l1151.48,0l-0,3055.49Z" style="fill:#fff;"/><path d="M23458.1,7705.25c0,657.913 -433.592,1126.45 -1041.74,1126.45c-608.146,-0 -1041.81,-468.533 -1041.81,-1126.45l0,-2003.84l-388.746,-0.001l0,2003.84c0,867.258 593.171,1480.4 1430.56,1480.4c837.312,-0 1430.55,-613.138 1430.55,-1480.4l-0,-2003.84l-388.817,0l0,2003.84Z" style="fill:#fff;"/><path d="M24997.7,6070.33l1151.4,0l-0,3055.49l388.816,-0l0,-3055.49l1151.48,0l0,-368.925l-2691.7,0l0,368.925Z" style="fill:#fff;"/><path d="M28635.9,6070.33l1151.48,0l0,3055.49l388.746,-0l-0,-3055.49l1151.48,0l-0,-368.925l-2691.7,0l0,368.925Z" style="fill:#fff;"/><path d="M35394.2,7321.42l-1370.73,-0l-0,368.85l981.916,-0l0,817.421c-254.195,194.445 -622.975,319.008 -941.987,319.008c-737.775,-0 -1360.75,-647.929 -1360.75,-1415.58c-0,-762.588 622.975,-1410.59 1360.75,-1410.59c373.771,0 817.421,169.488 1066.62,433.592l264.179,-269.096c-319.012,-324.004 -857.279,-523.367 -1330.8,-523.367c-947.05,0 -1754.56,807.509 -1754.56,1769.46c-0,962.096 807.508,1774.52 1754.56,1774.52c473.525,-0 1011.79,-204.355 1330.8,-523.363l0,-1340.86Z" style="fill:#fff;"/><path d="M37347.6,7979.38l797.529,-1799.48l792.533,1799.48l-1590.06,0Zm1006.88,-2278l-423.613,0l-1510.35,3424.41l423.683,-0.001l343.896,-777.633l1909.07,0l343.895,777.633l423.759,0.001l-1510.35,-3424.41Z" style="fill:#fff;"/><path d="M41304.6,7525.75l0,-1455.44l932.221,0c558.234,0 936.996,269.1 936.996,727.721c0,458.625 -378.762,727.721 -936.996,727.721l-932.221,0Zm1331.02,333.983c543.259,-114.654 932.075,-523.437 932.075,-1061.7c0,-643.012 -553.458,-1096.65 -1261.07,-1096.65l-1390.77,0l-0,3424.41l388.741,-0l0,-1231.12l907.192,0l867.263,1231.12l443.645,-0l-887.079,-1266.06Z" style="fill:#fff;"/><path d="M44484.2,5701.38l-0,368.925l1151.48,0l-0,3055.49l388.821,-0.001l-0.001,-3055.49l1151.4,0l-0,-368.925l-2691.7,0Z" style="fill:#fff;"/><path d="M16907.6,3590.93l-2385.93,0l0,-945.604l2160.45,0l-0,-832.829l-2160.45,0l0,-857.854l2385.93,-0l0,-832.9l-3312.72,-0l0,4302l3312.72,-0l0,-832.825l0,0.012Z" style="fill:#fff;"/><path d="M20037.9,4498.92c651.187,-0 1252.32,-281.825 1671.95,-720.125l-670.067,-601.2c-250.437,288.05 -607.425,482.204 -1001.88,482.204c-720.125,-0 -1333.84,-638.742 -1333.84,-1390.12c0,-745.3 613.717,-1383.97 1333.84,-1383.97c394.458,0 751.446,194.084 1001.88,482.134l670.067,-601.13c-419.634,-444.591 -1020.76,-720.125 -1671.95,-720.125c-1233.73,0 -2285.66,1014.47 -2285.66,2223.09c0,1208.55 1051.94,2229.24 2285.66,2229.24Z" style="fill:#fff;"/><path d="M26524.6,4423.75l-1797.17,-2435.91l1678.17,-1866.11l-1120.88,0l-1740.81,1972.51l-0,-1972.51l-920.505,0.001l0,4302l920.505,-0l-0,-1202.33l538.483,-576.1l1321.33,1778.43l1120.88,-0l0,0.012Z" style="fill:#fff;"/><path d="M29216.5,4423.75l1020.76,-2955.66l1014.4,2955.66l926.795,0l1302.52,-4302l-1001.88,0l-795.288,2886.79l-951.895,-2886.79l-1001.88,0l-951.825,2886.79l-795.284,-2886.79l-1001.88,0l1302.45,4302l933.016,0Z" style="fill:#fff;"/><path d="M37656.6,3590.93l-2385.85,0l-0,-945.604l2160.38,0l-0,-832.829l-2160.38,0l-0,-857.854l2385.85,-0l0,-832.9l-3312.65,-0l0,4302l3312.65,-0l0,-832.825l0,0.012Z" style="fill:#fff;"/><path d="M39590.8,967.088l914.35,-0c457.034,-0 770.184,237.991 770.184,607.42c-0,369.505 -313.15,607.425 -770.184,607.425l-914.35,0l0,-1214.85Zm0,2060.26l682.579,-0l983.221,1396.41l1052.01,0l-1058.31,-1502.97c588.616,-206.525 976.783,-707.538 976.783,-1346.28c-0,-851.633 -688.734,-1452.76 -1621.82,-1452.76l-1934.97,-0l0,4302l920.504,-0l0,-1396.41l0,0.013Z" style="fill:#fff;"/><path d="M44180.4,3221.43l538.487,-576.1l1321.25,1778.43l1121.02,0l-1797.17,-2435.91l1678.17,-1866.1l-1120.95,-0l-1740.82,1972.51l-0,-1972.51l-920.5,-0l-0,4302l920.5,-0l-0,-1202.33l-0,0.012Z" style="fill:#fff;"/><path d="M35331.3,11326.1l0,-821.325l183.446,0l0,821.325c0,213.179 129.775,348.525 333.771,348.525c203.846,0 333.621,-135.346 333.621,-348.525l-0,-821.325l183.596,0l-0,821.325c-0,315.175 -209.492,532.046 -517.217,532.046c-305.917,-0 -517.217,-216.871 -517.217,-532.046Z" style="fill:#fff;fill-rule:nonzero;"/><path d="M32951,11233.4l-0,422.671l402.27,-0c116.901,-0 211.446,-94.546 211.446,-211.3c0,-116.825 -94.546,-211.371 -211.446,-211.371l-402.27,0Zm-0,-544.996l-0,361.546l389.395,0c98.234,0 177.95,-81.667 177.95,-179.904c0.001,-100.117 -79.716,-181.642 -179.833,-181.642l-387.512,0Zm387.512,-183.592c200.234,0.001 363.354,144.676 363.354,346.717c0,116.754 -55.625,218.821 -151.979,283.638c122.321,64.958 198.35,187.283 198.35,328.125c0,218.82 -176.146,376.375 -394.966,376.375l-585.721,-0l-0,-1334.86l570.962,0Z" style="fill:#fff;fill-rule:nonzero;"/><path d="M34826.3,11355.8l-233.579,-604.383l-235.462,604.383l469.041,0Zm-852.866,483.871l519.171,-1334.85l198.35,-0l519.095,1334.85l-196.541,-0l-118.634,-300.35l-606.191,-0l-116.825,300.35l-198.425,-0Z" style="fill:#fff;fill-rule:nonzero;"/><path d="M36649.5,10504.8l153.937,-0l455.875,804.616l456.233,-804.616l153.938,-0l-0,1334.85l-183.667,-0l0,-902.854l-356.05,626.666l-140.766,0l-355.975,-626.666l-0,902.854l-183.525,-0l-0,-1334.85Z" style="fill:#fff;fill-rule:nonzero;"/><path d="M38447.8,10688.4l-0,526.479l342.954,0c152.054,0 254.121,-107.496 254.121,-263.166c-0,-155.817 -102.067,-263.313 -252.313,-263.313l-344.762,0Zm-183.45,-183.592l541.233,0c244.717,0 422.742,189.163 422.742,446.905c-0,257.595 -178.025,446.758 -422.742,446.758l-357.783,-0l-0,441.192l-183.45,-0l-0,-1334.86Z" style="fill:#fff;fill-rule:nonzero;"/><path d="M39605.6,11839.6l0,-1334.85l852.721,-0l-0,183.592l-669.271,-0l0,359.595l595.05,0l0,183.592l-595.05,0l0,608.075l-183.45,0Z" style="fill:#fff;fill-rule:nonzero;"/><path d="M41019.1,10504.8l0,1151.26l667.463,0l-0,183.596l-850.913,-0l0,-1334.85l183.45,-0Z" style="fill:#fff;fill-rule:nonzero;"/><path d="M42098.8,11839.6l0,-1334.85l852.796,-0l-0,183.592l-669.275,-0l-0,359.595l595.054,0l0,183.592l-595.054,0l-0,424.479l669.275,0l-0,183.596l-852.796,0Z" style="fill:#fff;fill-rule:nonzero;"/><path d="M43935.8,10427.6c207.684,0 407.917,90.784 534,244.646l-131.654,129.775c-90.858,-118.637 -240.958,-190.9 -398.583,-190.9c-278.138,0 -485.821,214.988 -485.821,502.459c0,287.325 207.683,502.387 485.821,502.387c122.396,0 244.721,-37.108 341.146,-101.996l-0,-257.667l-342.954,0l-0,-183.595l526.404,-0l-0,528.358c-140.842,129.846 -333.696,198.421 -524.596,198.421c-376.375,-0 -669.271,-298.467 -669.271,-685.909c0,-387.512 289.279,-685.979 665.508,-685.979Z" style="fill:#fff;fill-rule:nonzero;"/><path d="M44836.2,11839.6l0,-1334.85l852.796,-0l-0,183.592l-669.271,-0l0,359.595l595.05,0l0,183.592l-595.05,0l0,424.479l669.271,0l-0,183.596l-852.796,0Z" style="fill:#fff;fill-rule:nonzero;"/></g></svg>