<?xml version="1.0" encoding="UTF-8" standalone="no"?><!DOCTYPE svg PUBLIC "-//W3C//DTD SVG 1.1//EN" "http://www.w3.org/Graphics/SVG/1.1/DTD/svg11.dtd"><svg width="100%" height="100%" viewBox="0 0 11321 2971" version="1.1" xmlns="http://www.w3.org/2000/svg" xmlns:xlink="http://www.w3.org/1999/xlink" xml:space="preserve" xmlns:serif="http://www.serif.com/" style="fill-rule:evenodd;clip-rule:evenodd;stroke-linejoin:round;stroke-miterlimit:2;"><g><path d="M11312.7,2414.59l-3795.72,0l0,541.737l3795.72,-0l0,-541.737Zm-13.021,13.021l0,515.695l-3769.67,-0l0,-515.695l3769.67,0Z" style="fill:#fff;fill-rule:nonzero;"/><rect x="3264.45" y="2414.59" width="4254.17" height="541.737" style="fill:#fff;"/><path d="M3411.43,2521.18l80.99,265.625l80.538,-265.625l33.368,-0l80.99,265.625l80.521,-265.625l38.281,-0l-101.91,320.347l-34.253,0l-80.104,-252.274l-80.521,252.274l-34.271,0l-101.875,-320.347l38.246,-0Z" style="fill:#fff;"/><path d="M3990.7,2810.38c71.18,0 129.028,-57.83 129.028,-129.028c-0,-71.18 -57.848,-129.028 -129.028,-129.028c-71.198,0 -129.046,57.848 -129.046,129.028c0,71.198 57.848,129.028 129.046,129.028Zm-0,-293.663c90.746,-0 164.618,73.854 164.618,164.635c-0,90.764 -73.872,164.618 -164.618,164.618c-90.782,0 -164.636,-73.854 -164.636,-164.618c0,-90.781 73.854,-164.635 164.636,-164.635Z" style="fill:#fff;"/><path d="M4248.7,2521.18l0,133.472l176.198,-0l0,-133.472l35.591,-0l-0,320.347l-35.591,0l0,-151.285l-176.198,0l0,151.285l-35.59,0l0,-320.347l35.59,-0Z" style="fill:#fff;"/><path d="M4574.8,2521.18l177.518,255.833l-0,-255.833l35.59,-0l0,320.347l-34.253,0l-177.535,-255.833l-0,255.833l-35.591,0l0,-320.347l34.271,-0Z" style="fill:#fff;"/><path d="M4948.03,2521.18l-0,133.472l176.198,-0l-0,-133.472l35.59,-0l0,320.347l-35.59,0l-0,-151.285l-176.198,0l-0,151.285l-35.591,0l0,-320.347l35.591,-0Z" style="fill:#fff;"/><path d="M5346.2,2569.67l-63.177,158.403l125.903,0l-62.726,-158.403Zm-19.149,-48.489l37.83,-0l127.257,320.347l-38.264,0l-30.712,-77.865l-153.941,0l-31.146,77.865l-38.264,0l127.24,-320.347Z" style="fill:#fff;"/><path d="M5566.41,2521.18l177.517,255.833l0,-255.833l35.591,-0l-0,320.347l-34.254,0l-177.535,-255.833l0,255.833l-35.59,0l-0,-320.347l34.271,-0Z" style="fill:#fff;"/><path d="M5895.14,2556.77l-0,249.167l82.326,-0c72.083,-0 121.91,-50.729 121.91,-124.584c-0,-73.854 -49.827,-124.583 -121.91,-124.583l-82.326,-0Zm-35.591,-35.59l117.917,-0c92.101,-0 157.518,66.736 157.518,160.173c-0,93.438 -65.417,160.174 -157.518,160.174l-117.917,0l0,-320.347Z" style="fill:#fff;"/><path d="M6237.7,2521.18l80.972,265.625l80.539,-265.625l33.368,-0l80.989,265.625l80.538,-265.625l38.264,-0l-101.892,320.347l-34.271,0l-80.087,-252.274l-80.538,252.274l-34.271,0l-101.875,-320.347l38.264,-0Z" style="fill:#fff;"/><path d="M6872.12,2521.18l-0,35.59l-166.407,-0l0,97.882l148.611,-0l0,35.59l-148.611,0l0,115.695l166.407,-0l-0,35.59l-201.997,0l-0,-320.347l201.997,-0Z" style="fill:#fff;"/><path d="M6965.51,2694.71l99.67,0c37.379,0 64.514,-29.358 64.514,-68.976c0,-40.034 -27.135,-68.958 -64.062,-68.958l-100.122,-0l0,137.934Zm99.67,-173.524c58.299,-0 100.122,44.045 100.122,104.548c-0,42.709 -20.92,76.979 -53.403,93.872l59.618,121.927l-39.583,0l-54.722,-111.667c-3.577,0 -7.57,0.434 -12.032,0.434l-99.67,0l0,111.233l-35.59,0l-0,-320.347l135.26,-0Z" style="fill:#fff;"/><path d="M7256.01,2521.18l-0,129.93l138.837,-129.93l51.163,-0l-162.847,152.621l168.628,167.726l-50.712,0l-145.069,-145.052l-0,145.052l-35.573,0l-0,-320.347l35.573,-0Z" style="fill:#fff;"/><path d="M1718.66,157.743c-228.855,170.226 -507.154,280.174 -794.689,304.202c-61.18,5.035 -122.812,6.857 -184.444,8.229c-155.209,4.566 -315.452,9.132 -467.483,65.729c-49.879,18.872 -96.268,42.552 -140.209,69.792l0,-447.952l1586.83,0Zm-1586.83,986.494l0,-381.927c56.806,-44.427 117.987,-80.556 185.417,-105.869c131.476,-49.305 274.375,-53.42 425.938,-57.534c63.906,-1.823 127.83,-3.646 191.285,-9.132c366.111,-30.261 718.073,-189.636 985.782,-432.032l700.001,0c-109.671,238.438 -260.192,451.528 -492.414,552.553c-187.622,81.267 -406.771,75.33 -618.594,69.392l-105.469,-2.274c-417.257,-6.389 -735.469,51.128 -1001.16,183.976c-99.983,50 -190.851,112.118 -270.782,182.847Zm2656.81,-498.16c-130.122,233.802 -271.268,428.802 -480.018,540.382c-243.854,130.122 -541.892,120.539 -828.004,90.4l-76.25,-7.761c-242.014,-26.024 -492.743,-53.42 -733.386,16.441c-221.945,64.288 -413.993,211.702 -539.15,402.726l0,-363.629c88.577,-98.507 199.879,-183.993 328.299,-248.194c246.528,-123.264 546.008,-178.056 941.824,-170.747l103.628,2.743c225.99,5.938 459.74,12.327 673.386,-80.347c285.226,-123.75 460.973,-393.473 581.147,-670.348l28.524,0l0,488.334Zm-1076.53,2168.39c130.921,-140.851 271.494,-271.788 428.976,-381.684c208.49,-145.782 431.32,-238.455 647.553,-272.935l0,654.619l-1076.53,0Zm-1580.28,-333.177c252.883,-280.973 564.775,-506.824 913.578,-659.792c35.156,-15.07 60.711,6.388 67.569,13.229c7.292,6.857 29.219,32.882 13.229,69.392c-23.281,52.969 -61.163,110.486 -111.84,170.747c-239.688,285.625 -543.629,513.021 -882.536,664.393l0,-257.969Zm1932.1,-783.508c-185.348,143.802 -355.643,308.143 -520.452,467.014c-144.723,139.254 -294.011,283.056 -451.06,411.338c-114.757,93.559 -228.767,173.107 -341.302,238.333l-477.066,0c320.556,-158.142 608.334,-382.101 838.924,-656.962c58.438,-69.861 102.708,-137.414 131.024,-201.337c31.945,-73.038 16.424,-156.129 -39.722,-212.275c-55.694,-55.694 -138.333,-71.232 -210.469,-40.173c-322.969,141.753 -615.764,343.021 -861.98,590.747l0,-290.643c70.209,-276.667 300.105,-514.896 575.418,-595.035c215.85,-62.535 453.733,-36.962 683.351,-11.858l76.684,7.761c306.32,32.413 627.795,41.545 902.414,-105c175.642,-93.612 306.181,-234.653 418.941,-404.185l0,415.452c-286.215,82.691 -538.125,241.042 -724.705,386.823Zm-525.452,1116.68l-549.15,0c61.267,-42.552 122.709,-88.524 184.358,-138.802c161.163,-131.493 312.274,-277.118 458.82,-418.195c162.517,-156.58 330.521,-318.646 510.399,-458.351c168.889,-131.823 393.022,-274.757 645.73,-354.549l0,585.209c-242.413,34.826 -490.816,135.642 -721.511,297.552c-199.063,139.08 -370.33,308.143 -528.646,487.136Zm-1535.21,128.559l2913.93,0l0,-2913.84l-2913.93,0l0,2913.84Z" style="fill:#fff;fill-rule:nonzero;"/><path d="M3876.5,1966.48c0,-144.739 -112.465,-200.972 -269.184,-238.055c-139.965,-33.473 -221.302,-63.386 -221.302,-148.317c-0,-75.364 74.166,-142.378 175.85,-142.378c86.112,-0 167.483,39.479 235.66,105.295l57.414,-72.986c-75.365,-69.393 -166.268,-117.257 -288.299,-117.257c-157.9,-0 -275.139,102.899 -275.139,234.497c-0,142.343 104.062,193.767 269.167,232.048c143.541,33.507 221.319,68.212 221.319,155.539c0,74.149 -64.618,143.541 -191.406,143.541c-114.844,0 -199.792,-49.027 -269.184,-118.42l-58.612,72.969c82.553,81.354 189.011,130.399 324.185,130.399c191.406,0 289.531,-106.475 289.531,-236.875Z" style="fill:#fff;"/><path d="M4390.75,2190.19l93.316,-0l0,-733.317l276.337,0l0,-88.542l-646.007,0l-0,88.542l276.354,0l0,733.317Z" style="fill:#fff;"/><path d="M5629.95,1849.26c0,157.899 -104.062,270.347 -250.017,270.347c-145.955,0 -250.035,-112.448 -250.035,-270.347l-0,-480.921l-93.299,0l0,480.921c0,208.142 142.361,355.295 343.334,355.295c200.955,0 343.333,-147.153 343.333,-355.295l0,-480.921l-93.316,0l0,480.921Z" style="fill:#fff;"/><path d="M5999.45,1456.88l276.337,0l0,733.317l93.316,-0l0,-733.317l276.355,0l-0,-88.542l-646.008,0l0,88.542Z" style="fill:#fff;"/><path d="M6872.61,1456.88l276.354,0l0,733.317l93.299,-0l-0,-733.317l276.354,0l0,-88.542l-646.007,0l-0,88.542Z" style="fill:#fff;"/><path d="M8494.62,1757.14l-328.976,-0l-0,88.524l235.66,0l-0,196.181c-61.007,46.667 -149.514,76.562 -226.077,76.562c-177.066,0 -326.58,-155.503 -326.58,-339.739c0,-183.021 149.514,-338.542 326.58,-338.542c89.705,-0 196.181,40.677 255.99,104.062l63.403,-64.583c-76.563,-77.761 -205.747,-125.608 -319.393,-125.608c-227.292,0 -421.094,193.802 -421.094,424.671c0,230.903 193.802,425.885 421.094,425.885c113.646,0 242.83,-49.045 319.393,-125.607l-0,-321.806Z" style="fill:#fff;"/><path d="M8963.43,1915.05l191.407,-431.876l190.208,431.876l-381.615,-0Zm241.65,-546.72l-101.667,0l-362.483,821.859l101.684,-0l82.535,-186.632l458.177,-0l82.535,186.632l101.702,-0l-362.483,-821.859Z" style="fill:#fff;"/><path d="M9913.1,1806.18l0,-349.306l223.733,0c133.976,0 224.879,64.584 224.879,174.653c-0,110.07 -90.903,174.653 -224.879,174.653l-223.733,0Zm319.445,80.156c130.382,-27.517 223.698,-125.625 223.698,-254.809c0,-154.323 -132.83,-263.195 -302.656,-263.195l-333.785,0l-0,821.859l93.298,-0l0,-295.469l217.726,-0l208.143,295.469l106.475,-0l-212.899,-303.855Z" style="fill:#fff;"/><path d="M10676.2,1368.33l0,88.542l276.354,0l0,733.317l93.317,-0l-0,-733.317l276.337,0l-0,-88.542l-646.008,0Z" style="fill:#fff;"/><path d="M4057.83,861.824l-572.622,-0l0,-226.945l518.507,-0l0,-199.879l-518.507,0l0,-205.885l572.622,-0l0,-199.896l-795.053,-0l0,1032.48l795.053,0l0,-199.878Z" style="fill:#fff;"/><path d="M4809.1,1079.74c156.285,0 300.556,-67.638 401.268,-172.83l-160.816,-144.288c-60.105,69.132 -145.782,115.729 -240.452,115.729c-172.83,0 -320.122,-153.298 -320.122,-333.628c0,-178.872 147.292,-332.153 320.122,-332.153c94.67,-0 180.347,46.58 240.452,115.712l160.816,-144.271c-100.712,-106.702 -244.983,-172.83 -401.268,-172.83c-296.094,-0 -548.559,243.472 -548.559,533.542c-0,290.052 252.465,535.017 548.559,535.017Z" style="fill:#fff;"/><path d="M6365.91,1061.7l-431.32,-584.618l402.761,-447.865l-269.011,-0l-417.795,473.403l-0,-473.403l-220.921,-0l0,1032.48l220.921,0l-0,-288.559l129.236,-138.264l317.118,426.823l269.011,0Z" style="fill:#fff;"/><path d="M7011.95,1061.7l244.983,-709.358l243.455,709.358l222.431,0l312.604,-1032.48l-240.451,-0l-190.869,692.83l-228.455,-692.83l-240.451,-0l-228.438,692.83l-190.868,-692.83l-240.452,-0l312.587,1032.48l223.924,0Z" style="fill:#fff;"/><path d="M9037.59,861.824l-572.605,-0l0,-226.945l518.49,-0l0,-199.879l-518.49,0l0,-205.885l572.605,-0l0,-199.896l-795.035,-0l-0,1032.48l795.035,0l0,-199.878Z" style="fill:#fff;"/><path d="M9501.8,232.101l219.444,-0c109.688,-0 184.844,57.118 184.844,145.781c0,88.681 -75.156,145.782 -184.844,145.782l-219.444,-0l-0,-291.563Zm-0,494.462l163.819,0l235.973,335.139l252.483,0l-253.994,-360.712c141.268,-49.566 234.428,-169.809 234.428,-323.108c-0,-204.392 -165.296,-348.663 -389.237,-348.663l-464.393,-0l0,1032.48l220.921,0l-0,-335.139Z" style="fill:#fff;"/><path d="M10603.3,773.143l129.237,-138.264l317.101,426.823l269.045,0l-431.32,-584.618l402.761,-447.865l-269.028,-0l-417.796,473.403l0,-473.403l-220.92,-0l0,1032.48l220.92,0l0,-288.559Z" style="fill:#fff;"/><path d="M8479.52,2718.27l-0,-197.118l44.027,-0l0,197.118c0,51.163 31.146,83.646 80.105,83.646c48.923,-0 80.069,-32.483 80.069,-83.646l0,-197.118l44.063,-0l-0,197.118c-0,75.642 -50.278,127.691 -124.132,127.691c-73.42,0 -124.132,-52.049 -124.132,-127.691Z" style="fill:#fff;fill-rule:nonzero;"/><path d="M7908.25,2696.01l-0,101.441l96.545,0c28.056,0 50.747,-22.691 50.747,-50.712c-0,-28.038 -22.691,-50.729 -50.747,-50.729l-96.545,0Zm-0,-130.799l-0,86.771l93.455,0c23.576,0 42.708,-19.6 42.708,-43.177c0,-24.028 -19.132,-43.594 -43.16,-43.594l-93.003,0Zm93.003,-44.062c48.056,-0 87.205,34.722 87.205,83.212c0,28.021 -13.35,52.517 -36.475,68.073c29.357,15.59 47.604,44.948 47.604,78.75c-0,52.517 -42.275,90.33 -94.792,90.33l-140.573,-0l0,-320.365l137.031,-0Z" style="fill:#fff;fill-rule:nonzero;"/><path d="M8358.32,2725.38l-56.059,-145.052l-56.511,145.052l112.57,0Zm-204.688,116.129l124.601,-320.365l47.604,-0l124.583,320.365l-47.17,-0l-28.472,-72.084l-145.486,0l-28.038,72.084l-47.622,-0Z" style="fill:#fff;fill-rule:nonzero;"/><path d="M8795.89,2521.15l36.945,-0l109.41,193.108l109.496,-193.108l36.945,-0l-0,320.365l-44.08,-0l-0,-216.685l-85.452,150.4l-33.784,-0l-85.434,-150.4l-0,216.685l-44.046,-0l0,-320.365Z" style="fill:#fff;fill-rule:nonzero;"/><path d="M9227.47,2565.21l-0,126.355l82.309,-0c36.493,-0 60.989,-25.799 60.989,-63.16c0,-37.396 -24.496,-63.195 -60.555,-63.195l-82.743,0Zm-44.028,-44.062l129.896,-0c58.732,-0 101.458,45.399 101.458,107.257c0,61.823 -42.726,107.222 -101.458,107.222l-85.868,0l-0,105.886l-44.028,-0l-0,-320.365Z" style="fill:#fff;fill-rule:nonzero;"/><path d="M9505.35,2841.51l-0,-320.365l204.653,-0l-0,44.062l-160.625,0l-0,86.303l142.812,-0l0,44.062l-142.812,0l-0,145.938l-44.028,-0Z" style="fill:#fff;fill-rule:nonzero;"/><path d="M9844.59,2521.15l0,276.302l160.191,0l0,44.063l-204.219,-0l0,-320.365l44.028,-0Z" style="fill:#fff;fill-rule:nonzero;"/><path d="M10103.7,2841.51l0,-320.365l204.671,-0l-0,44.062l-160.626,0l0,86.303l142.813,-0l0,44.062l-142.813,0l0,101.875l160.626,0l-0,44.063l-204.671,-0Z" style="fill:#fff;fill-rule:nonzero;"/><path d="M10544.6,2502.62c49.844,-0 97.9,21.788 128.16,58.715l-31.597,31.146c-21.806,-28.473 -57.83,-45.816 -95.66,-45.816c-66.753,-0 -116.597,51.597 -116.597,120.59c-0,68.958 49.844,120.573 116.597,120.573c29.375,0 58.733,-8.906 81.875,-24.479l0,-61.84l-82.309,-0l0,-44.063l126.337,0l0,126.806c-33.802,31.163 -80.087,47.621 -125.903,47.621c-90.33,0 -160.625,-71.632 -160.625,-164.618c0,-93.003 69.427,-164.635 159.722,-164.635Z" style="fill:#fff;fill-rule:nonzero;"/><path d="M10760.7,2841.51l0,-320.365l204.671,-0l-0,44.062l-160.625,0l-0,86.303l142.812,-0l0,44.062l-142.812,0l-0,101.875l160.625,0l-0,44.063l-204.671,-0Z" style="fill:#fff;fill-rule:nonzero;"/></g></svg>