<?xml version="1.0" encoding="UTF-8" standalone="no"?><!DOCTYPE svg PUBLIC "-//W3C//DTD SVG 1.1//EN" "http://www.w3.org/Graphics/SVG/1.1/DTD/svg11.dtd"><svg width="100%" height="100%" viewBox="0 0 67 67" version="1.1" xmlns="http://www.w3.org/2000/svg" xmlns:xlink="http://www.w3.org/1999/xlink" xml:space="preserve" xmlns:serif="http://www.serif.com/" style="fill-rule:evenodd;clip-rule:evenodd;stroke-linejoin:round;stroke-miterlimit:2;"><path d="M38.876,4.841c-4.909,3.651 -10.878,6.009 -17.045,6.525c-1.312,0.108 -2.634,0.147 -3.956,0.176c-3.329,0.098 -6.766,0.196 -10.027,1.41c-1.07,0.405 -2.065,0.913 -3.007,1.497l-0,-9.608l34.035,-0Zm-34.035,21.16l-0,-8.193c1.218,-0.953 2.53,-1.727 3.977,-2.27c2.82,-1.058 5.885,-1.146 9.136,-1.234c1.37,-0.04 2.741,-0.079 4.102,-0.196c7.853,-0.649 15.402,-4.068 21.144,-9.267l15.014,-0c-2.352,5.114 -5.581,9.685 -10.561,11.852c-4.025,1.743 -8.725,1.616 -13.268,1.488l-2.263,-0.049c-8.949,-0.137 -15.775,1.097 -21.473,3.947c-2.145,1.072 -4.094,2.404 -5.808,3.922Zm56.985,-10.686c-2.791,5.015 -5.818,9.198 -10.296,11.591c-5.23,2.791 -11.623,2.586 -17.76,1.939l-1.635,-0.166c-5.191,-0.559 -10.569,-1.146 -15.73,0.352c-4.761,1.379 -8.88,4.541 -11.564,8.639l-0,-7.8c1.9,-2.113 4.287,-3.947 7.041,-5.324c5.288,-2.644 11.712,-3.819 20.201,-3.662l2.223,0.059c4.847,0.127 9.861,0.264 14.443,-1.724c6.118,-2.654 9.888,-8.439 12.465,-14.378l0.612,-0l-0,10.474Zm-23.09,46.511c2.808,-3.021 5.823,-5.83 9.201,-8.187c4.472,-3.127 9.251,-5.115 13.889,-5.854l-0,14.041l-23.09,-0Zm-33.895,-7.147c5.424,-6.026 12.113,-10.871 19.595,-14.152c0.754,-0.323 1.302,0.137 1.449,0.284c0.157,0.147 0.627,0.705 0.284,1.488c-0.499,1.137 -1.312,2.37 -2.399,3.663c-5.141,6.126 -11.66,11.004 -18.929,14.251l-0,-5.534Zm41.441,-16.805c-3.976,3.084 -7.628,6.609 -11.163,10.017c-3.104,2.987 -6.306,6.071 -9.675,8.823c-2.461,2.007 -4.907,3.713 -7.32,5.112l-10.233,-0c6.876,-3.392 13.048,-8.196 17.994,-14.092c1.254,-1.498 2.203,-2.947 2.81,-4.318c0.686,-1.567 0.353,-3.349 -0.852,-4.553c-1.194,-1.195 -2.967,-1.528 -4.514,-0.862c-6.927,3.041 -13.207,7.358 -18.488,12.671l-0,-6.234c1.506,-5.934 6.437,-11.044 12.342,-12.763c4.629,-1.341 9.732,-0.793 14.657,-0.254l1.645,0.166c6.57,0.695 13.465,0.891 19.355,-2.252c3.767,-2.008 6.567,-5.033 8.986,-8.67l-0,8.912c-6.139,1.773 -11.542,5.17 -15.544,8.297Zm-11.27,23.952l-11.779,-0c1.314,-0.913 2.632,-1.899 3.954,-2.977c3.457,-2.821 6.698,-5.944 9.841,-8.97c3.486,-3.359 7.09,-6.835 10.948,-9.832c3.622,-2.827 8.43,-5.893 13.85,-7.605l-0,12.553c-5.2,0.747 -10.527,2.909 -15.476,6.382c-4.269,2.983 -7.943,6.61 -11.338,10.449Zm-32.929,2.757l62.5,0l0,-62.5l-62.5,0l0,62.5Z" style="fill:#6b7662;fill-rule:nonzero;"/></svg>