<?xml version="1.0" encoding="UTF-8" standalone="no"?>
<!DOCTYPE svg PUBLIC "-//W3C//DTD SVG 1.1//EN" "http://www.w3.org/Graphics/SVG/1.1/DTD/svg11.dtd">
<svg width="100%" height="100%" viewBox="0 0 2717 713" version="1.1" xmlns="http://www.w3.org/2000/svg" xmlns:xlink="http://www.w3.org/1999/xlink" xml:space="preserve" xmlns:serif="http://www.serif.com/" style="fill-rule:evenodd;clip-rule:evenodd;stroke-linejoin:round;stroke-miterlimit:2;">
    <g transform="matrix(4.16667,0,0,4.16667,0,0)">
        <path d="M651.609,139.08L432.976,139.08L432.976,170.284L651.609,170.284L651.609,139.08ZM650.859,139.83L650.859,169.534L433.726,169.534L433.726,139.83L650.859,139.83Z" style="fill:rgb(107,118,98);fill-rule:nonzero;"/>
        <rect x="188.032" y="139.08" width="245.04" height="31.204" style="fill:rgb(107,118,98);fill-rule:nonzero;"/>
        <path d="M98.995,9.086C85.813,18.891 69.783,25.224 53.221,26.608C49.697,26.898 46.147,27.003 42.597,27.082C33.657,27.345 24.427,27.608 15.67,30.868C12.797,31.955 10.125,33.319 7.594,34.888L7.594,9.086L98.995,9.086ZM7.594,65.908L7.594,43.909C10.866,41.35 14.39,39.269 18.274,37.811C25.847,34.971 34.078,34.734 42.808,34.497C46.489,34.392 50.171,34.287 53.826,33.971C74.914,32.228 95.187,23.048 110.607,9.086L150.927,9.086C144.61,22.82 135.94,35.094 122.564,40.913C111.757,45.594 99.134,45.252 86.933,44.91L80.858,44.779C56.824,44.411 38.495,47.724 23.191,55.376C17.432,58.256 12.198,61.834 7.594,65.908ZM160.626,37.214C153.131,50.681 145.001,61.913 132.977,68.34C118.931,75.835 101.764,75.283 85.284,73.547L80.892,73.1C66.952,71.601 52.51,70.023 38.649,74.047C25.865,77.75 14.803,86.241 7.594,97.244L7.594,76.299C12.696,70.625 19.107,65.701 26.504,62.003C40.704,54.903 57.954,51.747 80.753,52.168L86.722,52.326C99.739,52.668 113.203,53.036 125.509,47.698C141.938,40.57 152.061,25.034 158.983,9.086L160.626,9.086L160.626,37.214ZM98.618,162.113C106.159,154 114.256,146.458 123.327,140.128C135.336,131.731 148.171,126.393 160.626,124.407L160.626,162.113L98.618,162.113ZM7.594,142.922C22.16,126.738 40.125,113.729 60.216,104.918C62.241,104.05 63.713,105.286 64.108,105.68C64.528,106.075 65.791,107.574 64.87,109.677C63.529,112.728 61.347,116.041 58.428,119.512C44.622,135.964 27.115,149.062 7.594,157.781L7.594,142.922ZM118.883,97.792C108.207,106.075 98.398,115.541 88.905,124.692C80.569,132.713 71.97,140.996 62.924,148.385C56.314,153.774 49.747,158.356 43.265,162.113L15.786,162.113C34.25,153.004 50.826,140.104 64.108,124.272C67.474,120.248 70.024,116.357 71.655,112.675C73.495,108.468 72.601,103.682 69.367,100.448C66.159,97.24 61.399,96.345 57.244,98.134C38.641,106.299 21.776,117.892 7.594,132.161L7.594,115.42C11.638,99.484 24.88,85.762 40.738,81.146C53.171,77.544 66.873,79.017 80.099,80.463L84.516,80.91C102.16,82.777 120.677,83.303 136.495,74.862C146.612,69.47 154.131,61.346 160.626,51.581L160.626,75.511C144.14,80.274 129.63,89.395 118.883,97.792ZM88.617,162.113L56.986,162.113C60.515,159.662 64.054,157.014 67.605,154.118C76.888,146.544 85.592,138.156 94.033,130.03C103.394,121.011 113.071,111.676 123.432,103.629C133.16,96.036 146.07,87.803 160.626,83.207L160.626,116.915C146.663,118.921 132.355,124.728 119.067,134.054C107.601,142.065 97.736,151.803 88.617,162.113ZM0.189,169.518L168.031,169.518L168.031,1.681L0.189,1.681L0.189,169.518Z" style="fill:rgb(107,118,98);fill-rule:nonzero;"/>
        <path d="M223.286,113.269C223.286,104.932 216.808,101.693 207.781,99.557C199.719,97.629 195.034,95.906 195.034,91.014C195.034,86.673 199.306,82.813 205.163,82.813C210.123,82.813 214.81,85.087 218.737,88.878L222.044,84.674C217.703,80.677 212.467,77.92 205.438,77.92C196.343,77.92 189.59,83.847 189.59,91.427C189.59,99.626 195.584,102.588 205.094,104.793C213.362,106.723 217.842,108.722 217.842,113.752C217.842,118.023 214.12,122.02 206.817,122.02C200.202,122.02 195.309,119.196 191.312,115.199L187.936,119.402C192.691,124.088 198.823,126.913 206.609,126.913C217.634,126.913 223.286,120.78 223.286,113.269Z" style="fill:rgb(107,118,98);fill-rule:nonzero;"/>
        <path d="M252.907,126.155L258.282,126.155L258.282,83.916L274.199,83.916L274.199,78.816L236.989,78.816L236.989,83.916L252.907,83.916L252.907,126.155Z" style="fill:rgb(107,118,98);fill-rule:nonzero;"/>
        <path d="M324.285,106.517C324.285,115.612 318.291,122.089 309.884,122.089C301.477,122.089 295.482,115.612 295.482,106.517L295.482,78.816L290.108,78.816L290.108,106.517C290.108,118.506 298.308,126.982 309.884,126.982C321.459,126.982 329.66,118.506 329.66,106.517L329.66,78.816L324.285,78.816L324.285,106.517Z" style="fill:rgb(107,118,98);fill-rule:nonzero;"/>
        <path d="M345.568,83.916L361.485,83.916L361.485,126.155L366.86,126.155L366.86,83.916L382.778,83.916L382.778,78.816L345.568,78.816L345.568,83.916Z" style="fill:rgb(107,118,98);fill-rule:nonzero;"/>
        <path d="M395.862,83.916L411.78,83.916L411.78,126.155L417.154,126.155L417.154,83.916L433.072,83.916L433.072,78.816L395.862,78.816L395.862,83.916Z" style="fill:rgb(107,118,98);fill-rule:nonzero;"/>
        <path d="M489.29,101.211L470.341,101.211L470.341,106.31L483.915,106.31L483.915,117.61C480.401,120.298 475.303,122.02 470.893,122.02C460.694,122.02 452.082,113.063 452.082,102.451C452.082,91.909 460.694,82.951 470.893,82.951C476.06,82.951 482.193,85.294 485.638,88.945L489.29,85.225C484.88,80.746 477.439,77.99 470.893,77.99C457.801,77.99 446.638,89.153 446.638,102.451C446.638,115.751 457.801,126.982 470.893,126.982C477.439,126.982 484.88,124.157 489.29,119.747L489.29,101.211Z" style="fill:rgb(107,118,98);fill-rule:nonzero;"/>
        <path d="M516.293,110.307L527.318,85.431L538.274,110.307L516.293,110.307ZM530.212,78.816L524.356,78.816L503.477,126.155L509.334,126.155L514.088,115.405L540.479,115.405L545.233,126.155L551.091,126.155L530.212,78.816Z" style="fill:rgb(107,118,98);fill-rule:nonzero;"/>
        <path d="M570.994,104.036L570.994,83.916L583.881,83.916C591.598,83.916 596.834,87.636 596.834,93.976C596.834,100.316 591.598,104.036 583.881,104.036L570.994,104.036ZM589.394,108.653C596.904,107.068 602.279,101.417 602.279,93.976C602.279,85.087 594.628,78.816 584.846,78.816L565.62,78.816L565.62,126.155L570.994,126.155L570.994,109.136L583.535,109.136L595.524,126.155L601.657,126.155L589.394,108.653Z" style="fill:rgb(107,118,98);fill-rule:nonzero;"/>
        <path d="M614.948,78.816L614.948,83.916L630.866,83.916L630.866,126.155L636.241,126.155L636.241,83.916L652.158,83.916L652.158,78.816L614.948,78.816Z" style="fill:rgb(107,118,98);fill-rule:nonzero;"/>
        <path d="M233.731,49.641L200.748,49.641L200.748,36.569L230.614,36.569L230.614,25.056L200.748,25.056L200.748,13.197L233.731,13.197L233.731,1.683L187.936,1.683L187.936,61.154L233.731,61.154L233.731,49.641Z" style="fill:rgb(107,118,98);fill-rule:nonzero;"/>
        <path d="M277.004,62.193C286.006,62.193 294.316,58.297 300.117,52.238L290.854,43.927C287.392,47.909 282.457,50.593 277.004,50.593C267.049,50.593 258.565,41.763 258.565,31.376C258.565,21.073 267.049,12.244 277.004,12.244C282.457,12.244 287.392,14.927 290.854,18.909L300.117,10.599C294.316,4.453 286.006,0.644 277.004,0.644C259.949,0.644 245.407,14.668 245.407,31.376C245.407,48.083 259.949,62.193 277.004,62.193Z" style="fill:rgb(107,118,98);fill-rule:nonzero;"/>
        <path d="M366.676,61.154L341.832,27.48L365.031,1.683L349.536,1.683L325.471,28.951L325.471,1.683L312.746,1.683L312.746,61.154L325.471,61.154L325.471,44.533L332.915,36.569L351.181,61.154L366.676,61.154Z" style="fill:rgb(107,118,98);fill-rule:nonzero;"/>
        <path d="M403.888,61.154L417.999,20.295L432.022,61.154L444.834,61.154L462.84,1.683L448.99,1.683L437.996,41.59L424.837,1.683L410.987,1.683L397.829,41.59L386.835,1.683L372.985,1.683L390.99,61.154L403.888,61.154Z" style="fill:rgb(107,118,98);fill-rule:nonzero;"/>
        <path d="M520.565,49.641L487.583,49.641L487.583,36.569L517.448,36.569L517.448,25.056L487.583,25.056L487.583,13.197L520.565,13.197L520.565,1.683L474.771,1.683L474.771,61.154L520.565,61.154L520.565,49.641Z" style="fill:rgb(107,118,98);fill-rule:nonzero;"/>
        <path d="M547.303,13.369L559.943,13.369C566.261,13.369 570.59,16.659 570.59,21.766C570.59,26.874 566.261,30.163 559.943,30.163L547.303,30.163L547.303,13.369ZM547.303,41.85L556.739,41.85L570.331,61.154L584.874,61.154L570.244,40.377C578.381,37.522 583.747,30.596 583.747,21.766C583.747,9.993 574.226,1.683 561.327,1.683L534.578,1.683L534.578,61.154L547.303,61.154L547.303,41.85Z" style="fill:rgb(107,118,98);fill-rule:nonzero;"/>
        <path d="M610.748,44.533L618.192,36.569L636.457,61.154L651.954,61.154L627.11,27.48L650.309,1.683L634.813,1.683L610.748,28.951L610.748,1.683L598.023,1.683L598.023,61.154L610.748,61.154L610.748,44.533Z" style="fill:rgb(107,118,98);fill-rule:nonzero;"/>
        <path d="M196.498,145.22L201.163,160.52L205.802,145.22L207.724,145.22L212.389,160.52L217.027,145.22L219.232,145.22L213.362,163.672L211.389,163.672L206.775,149.141L202.137,163.672L200.163,163.672L194.295,145.22L196.498,145.22Z" style="fill:white;fill-rule:nonzero;"/>
        <path d="M229.864,161.878C233.964,161.878 237.296,158.547 237.296,154.446C237.296,150.346 233.964,147.014 229.864,147.014C225.763,147.014 222.431,150.346 222.431,154.446C222.431,158.547 225.763,161.878 229.864,161.878ZM229.864,144.963C235.091,144.963 239.346,149.217 239.346,154.446C239.346,159.674 235.091,163.928 229.864,163.928C224.635,163.928 220.381,159.674 220.381,154.446C220.381,149.217 224.635,144.963 229.864,144.963Z" style="fill:white;fill-rule:nonzero;"/>
        <path d="M244.725,145.22L244.725,152.908L254.874,152.908L254.874,145.22L256.924,145.22L256.924,163.672L254.874,163.672L254.874,154.958L244.725,154.958L244.725,163.672L242.675,163.672L242.675,145.22L244.725,145.22Z" style="fill:white;fill-rule:nonzero;"/>
        <path d="M263.508,145.22L273.733,159.956L273.733,145.22L275.783,145.22L275.783,163.672L273.81,163.672L263.584,148.936L263.584,163.672L261.534,163.672L261.534,145.22L263.508,145.22Z" style="fill:white;fill-rule:nonzero;"/>
        <path d="M285.006,145.22L285.006,152.908L295.155,152.908L295.155,145.22L297.205,145.22L297.205,163.672L295.155,163.672L295.155,154.958L285.006,154.958L285.006,163.672L282.956,163.672L282.956,145.22L285.006,145.22Z" style="fill:white;fill-rule:nonzero;"/>
        <path d="M307.941,148.013L304.302,157.137L311.554,157.137L307.941,148.013ZM306.838,145.22L309.017,145.22L316.347,163.672L314.143,163.672L312.374,159.187L303.507,159.187L301.713,163.672L299.509,163.672L306.838,145.22Z" style="fill:white;fill-rule:nonzero;"/>
        <path d="M320.625,145.22L330.85,159.956L330.85,145.22L332.9,145.22L332.9,163.672L330.927,163.672L320.701,148.936L320.701,163.672L318.651,163.672L318.651,145.22L320.625,145.22Z" style="fill:white;fill-rule:nonzero;"/>
        <path d="M339.56,147.27L339.56,161.622L344.302,161.622C348.454,161.622 351.324,158.7 351.324,154.446C351.324,150.192 348.454,147.27 344.302,147.27L339.56,147.27ZM337.51,145.22L344.302,145.22C349.607,145.22 353.375,149.064 353.375,154.446C353.375,159.828 349.607,163.672 344.302,163.672L337.51,163.672L337.51,145.22Z" style="fill:white;fill-rule:nonzero;"/>
        <path d="M359.291,145.22L363.955,160.52L368.594,145.22L370.516,145.22L375.181,160.52L379.82,145.22L382.024,145.22L376.155,163.672L374.181,163.672L369.568,149.141L364.929,163.672L362.955,163.672L357.087,145.22L359.291,145.22Z" style="fill:white;fill-rule:nonzero;"/>
        <path d="M395.834,145.22L395.834,147.27L386.249,147.27L386.249,152.908L394.809,152.908L394.809,154.958L386.249,154.958L386.249,161.622L395.834,161.622L395.834,163.672L384.199,163.672L384.199,145.22L395.834,145.22Z" style="fill:white;fill-rule:nonzero;"/>
        <path d="M401.213,155.215L406.954,155.215C409.107,155.215 410.67,153.524 410.67,151.242C410.67,148.936 409.107,147.27 406.98,147.27L401.213,147.27L401.213,155.215ZM406.954,145.22C410.312,145.22 412.721,147.757 412.721,151.242C412.721,153.702 411.516,155.676 409.645,156.649L413.079,163.672L410.799,163.672L407.647,157.24C407.441,157.24 407.211,157.265 406.954,157.265L401.213,157.265L401.213,163.672L399.163,163.672L399.163,145.22L406.954,145.22Z" style="fill:white;fill-rule:nonzero;"/>
        <path d="M417.946,145.22L417.946,152.704L425.943,145.22L428.89,145.22L419.51,154.011L429.223,163.672L426.302,163.672L417.946,155.317L417.946,163.672L415.897,163.672L415.897,145.22L417.946,145.22Z" style="fill:white;fill-rule:nonzero;"/>
        <path d="M455.515,155.29L455.515,161.133L461.076,161.133C462.692,161.133 463.999,159.826 463.999,158.212C463.999,156.597 462.692,155.29 461.076,155.29L455.515,155.29ZM455.515,147.756L455.515,152.754L460.898,152.754C462.256,152.754 463.358,151.625 463.358,150.267C463.358,148.883 462.256,147.756 460.872,147.756L455.515,147.756ZM460.872,145.218C463.64,145.218 465.895,147.218 465.895,150.011C465.895,151.625 465.126,153.036 463.794,153.932C465.485,154.83 466.536,156.521 466.536,158.468C466.536,161.493 464.101,163.671 461.076,163.671L452.979,163.671L452.979,145.218L460.872,145.218Z" style="fill:rgb(107,118,98);fill-rule:nonzero;"/>
        <path d="M481.439,156.982L478.21,148.627L474.955,156.982L481.439,156.982ZM469.649,163.671L476.826,145.218L479.568,145.218L486.744,163.671L484.027,163.671L482.387,159.519L474.007,159.519L472.392,163.671L469.649,163.671Z" style="fill:rgb(107,118,98);fill-rule:nonzero;"/>
        <path d="M488.42,156.572L488.42,145.218L490.956,145.218L490.956,156.572C490.956,159.519 492.75,161.39 495.57,161.39C498.388,161.39 500.182,159.519 500.182,156.572L500.182,145.218L502.72,145.218L502.72,156.572C502.72,160.929 499.824,163.927 495.57,163.927C491.341,163.927 488.42,160.929 488.42,156.572Z" style="fill:rgb(107,118,98);fill-rule:nonzero;"/>
        <path d="M506.643,145.218L508.771,145.218L515.073,156.341L521.38,145.218L523.508,145.218L523.508,163.671L520.969,163.671L520.969,151.19L516.047,159.853L514.101,159.853L509.18,151.19L509.18,163.671L506.643,163.671L506.643,145.218Z" style="fill:rgb(107,118,98);fill-rule:nonzero;"/>
        <path d="M531.502,147.756L531.502,155.034L536.243,155.034C538.345,155.034 539.756,153.548 539.756,151.396C539.756,149.242 538.345,147.756 536.268,147.756L531.502,147.756ZM528.966,145.218L536.448,145.218C539.831,145.218 542.292,147.833 542.292,151.396C542.292,154.957 539.831,157.572 536.448,157.572L531.502,157.572L531.502,163.671L528.966,163.671L528.966,145.218Z" style="fill:rgb(107,118,98);fill-rule:nonzero;"/>
        <path d="M547.508,163.671L547.508,145.218L559.296,145.218L559.296,147.756L550.044,147.756L550.044,152.727L558.27,152.727L558.27,155.265L550.044,155.265L550.044,163.671L547.508,163.671Z" style="fill:rgb(107,118,98);fill-rule:nonzero;"/>
        <path d="M567.048,145.218L567.048,161.133L576.275,161.133L576.275,163.671L564.512,163.671L564.512,145.218L567.048,145.218Z" style="fill:rgb(107,118,98);fill-rule:nonzero;"/>
        <path d="M581.971,163.671L581.971,145.218L593.76,145.218L593.76,147.756L584.508,147.756L584.508,152.727L592.734,152.727L592.734,155.265L584.508,155.265L584.508,161.133L593.76,161.133L593.76,163.671L581.971,163.671Z" style="fill:rgb(107,118,98);fill-rule:nonzero;"/>
        <path d="M607.37,144.151C610.241,144.151 613.009,145.406 614.752,147.533L612.932,149.327C611.676,147.687 609.601,146.688 607.422,146.688C603.577,146.688 600.706,149.66 600.706,153.634C600.706,157.606 603.577,160.579 607.422,160.579C609.114,160.579 610.805,160.066 612.138,159.169L612.138,155.607L607.397,155.607L607.397,153.069L614.674,153.069L614.674,160.373C612.727,162.168 610.061,163.116 607.422,163.116C602.219,163.116 598.17,158.99 598.17,153.634C598.17,148.277 602.169,144.151 607.37,144.151Z" style="fill:rgb(107,118,98);fill-rule:nonzero;"/>
        <path d="M619.817,163.671L619.817,145.218L631.606,145.218L631.606,147.756L622.354,147.756L622.354,152.727L630.58,152.727L630.58,155.265L622.354,155.265L622.354,161.133L631.606,161.133L631.606,163.671L619.817,163.671Z" style="fill:rgb(107,118,98);fill-rule:nonzero;"/>
    </g>
</svg>
